<svg data-logo="logo" xmlns="http://www.w3.org/2000/svg" viewBox="0 0 469 43">
        <g style="opacity: 1;" id="logogram" transform="translate(0, 1) rotate(0)"><path d="M20.5272 10.3C20.5272 15.8228 16.0501 20.3 10.5272 20.3H0.527222V10.3C0.527222 4.77713 5.00437 0.299988 10.5272 0.299988C16.0501 0.299988 20.5272 4.77713 20.5272 10.3Z" fill="#1FD0FF"></path><path d="M20.5272 30.3C20.5272 24.7771 25.0044 20.3 30.5272 20.3H40.5272V30.3C40.5272 35.8228 36.0501 40.3 30.5272 40.3C25.0044 40.3 20.5272 35.8228 20.5272 30.3Z" fill="#9263EE"></path><path d="M0.527222 30.3C0.527222 35.8228 5.00437 40.3 10.5272 40.3H20.5272V30.3C20.5272 24.7771 16.0501 20.3 10.5272 20.3C5.00437 20.3 0.527222 24.7771 0.527222 30.3Z" fill="#EF982A"></path><path d="M40.5272 10.3C40.5272 4.77713 36.0501 0.299988 30.5272 0.299988H20.5272V10.3C20.5272 15.8228 25.0044 20.3 30.5272 20.3C36.0501 20.3 40.5272 15.8228 40.5272 10.3Z" fill="#F03E3F"></path></g>
        <g style="opacity: 1;" id="logotype" transform="translate(47, 1)"><path fill="#0f0f0f" d="M18.41 13.35L12.02 33L6.26 33L15.04 7.54L21.98 7.54L30.75 33L25.00 33L18.61 13.35L18.41 13.35ZM11.67 27.19L11.67 22.99L25.29 22.99L25.29 27.19L11.67 27.19ZM32.64 7.54L38.01 7.54L38.01 33L32.64 33L32.64 7.54ZM53.63 33L48.26 33L48.26 7.54L53.63 7.54L53.63 18.76L53.97 18.76L63.13 7.54L69.57 7.54L60.14 18.94L69.69 33L63.25 33L56.28 22.54L53.63 25.77L53.63 33ZM76.46 21.96L76.46 21.96L76.46 33L71.18 33L71.18 13.89L76.38 13.89L76.38 17.29L76.56 17.29Q77.21 15.60 78.63 14.63Q80.05 13.65 82.19 13.65L82.19 13.65Q84.17 13.65 85.65 14.53Q87.13 15.40 87.95 17.00Q88.77 18.61 88.77 20.85L88.77 20.85L88.77 33L83.49 33L83.49 21.79Q83.49 20.05 82.58 19.05Q81.67 18.05 80.08 18.05L80.08 18.05Q79.02 18.05 78.20 18.52Q77.38 18.99 76.92 19.86Q76.46 20.73 76.46 21.96ZM100.47 33.38L100.47 33.38Q97.58 33.38 95.47 32.14Q93.36 30.90 92.23 28.68Q91.09 26.47 91.09 23.53L91.09 23.53Q91.09 20.56 92.23 18.35Q93.36 16.13 95.47 14.89Q97.58 13.65 100.47 13.65L100.47 13.65Q103.38 13.65 105.49 14.89Q107.60 16.13 108.74 18.35Q109.87 20.56 109.87 23.53L109.87 23.53Q109.87 26.47 108.74 28.68Q107.60 30.90 105.49 32.14Q103.38 33.38 100.47 33.38ZM100.51 29.24L100.51 29.24Q101.82 29.24 102.71 28.50Q103.60 27.75 104.05 26.45Q104.51 25.16 104.51 23.50L104.51 23.50Q104.51 21.82 104.05 20.54Q103.60 19.26 102.71 18.52Q101.82 17.79 100.51 17.79L100.51 17.79Q99.17 17.79 98.28 18.52Q97.38 19.26 96.93 20.54Q96.47 21.82 96.47 23.50L96.47 23.50Q96.47 25.16 96.93 26.45Q97.38 27.75 98.28 28.50Q99.17 29.24 100.51 29.24ZM121.56 33L115.96 33L110.76 13.89L116.13 13.89L119.08 26.75L119.25 26.75L122.35 13.89L127.59 13.89L130.72 26.66L130.89 26.66L133.80 13.89L139.15 13.89L133.95 33L128.36 33L125.08 20.99L124.84 20.99L121.56 33ZM140.82 7.54L146.10 7.54L146.10 33L140.82 33L140.82 7.54ZM157.91 33.38L157.91 33.38Q154.97 33.38 152.84 32.18Q150.70 30.98 149.56 28.77Q148.43 26.56 148.43 23.53L148.43 23.53Q148.43 20.59 149.56 18.37Q150.70 16.15 152.78 14.90Q154.85 13.65 157.66 13.65L157.66 13.65Q159.55 13.65 161.19 14.26Q162.83 14.87 164.06 16.07Q165.29 17.28 165.98 19.10Q166.66 20.92 166.66 23.36L166.66 23.36L166.66 24.80L150.53 24.80L150.53 21.53L164.10 21.53L161.64 22.39Q161.64 20.93 161.19 19.86Q160.75 18.78 159.87 18.19Q158.99 17.60 157.69 17.60L157.69 17.60Q156.39 17.60 155.49 18.20Q154.60 18.80 154.12 19.82Q153.64 20.85 153.64 22.18L153.64 22.18L153.64 24.49Q153.64 26.04 154.19 27.15Q154.73 28.25 155.72 28.84Q156.70 29.43 157.98 29.43L157.98 29.43Q158.87 29.43 159.59 29.17Q160.30 28.92 160.83 28.42Q161.35 27.92 161.60 27.22L161.60 27.22L166.49 27.55Q166.13 29.31 165.00 30.62Q163.86 31.92 162.06 32.65Q160.27 33.38 157.91 33.38ZM175.89 33.31L175.89 33.31Q173.70 33.31 171.94 32.18Q170.18 31.05 169.16 28.86Q168.13 26.66 168.13 23.48L168.13 23.48Q168.13 20.20 169.19 18.01Q170.25 15.82 172.01 14.74Q173.77 13.65 175.86 13.65L175.86 13.65Q177.46 13.65 178.54 14.19Q179.62 14.73 180.28 15.53Q180.95 16.34 181.29 17.12L181.29 17.12L181.44 17.12L181.44 7.54L186.74 7.54L186.74 33L181.53 33L181.53 29.94L181.29 29.94Q180.93 30.73 180.25 31.50Q179.56 32.28 178.50 32.79Q177.43 33.31 175.89 33.31ZM177.55 29.10L177.55 29.10Q178.83 29.10 179.73 28.39Q180.62 27.69 181.09 26.42Q181.56 25.16 181.56 23.46L181.56 23.46Q181.56 21.75 181.10 20.50Q180.64 19.24 179.74 18.55Q178.83 17.86 177.55 17.86L177.55 17.86Q176.25 17.86 175.36 18.58Q174.47 19.29 174.01 20.55Q173.55 21.81 173.55 23.46L173.55 23.46Q173.55 25.12 174.01 26.39Q174.47 27.67 175.37 28.39Q176.27 29.10 177.55 29.10ZM198.38 40.55L198.38 40.55Q194.52 40.55 192.33 39.02Q190.14 37.49 189.66 35.22L189.66 35.22L194.55 34.57Q194.77 35.15 195.25 35.65Q195.73 36.14 196.53 36.44Q197.34 36.74 198.50 36.74L198.50 36.74Q200.23 36.74 201.35 35.91Q202.48 35.08 202.48 33.12L202.48 33.12L202.48 29.62L202.26 29.62Q201.92 30.40 201.22 31.12Q200.52 31.84 199.42 32.28Q198.33 32.73 196.81 32.73L196.81 32.73Q194.65 32.73 192.90 31.73Q191.15 30.73 190.10 28.66Q189.05 26.59 189.05 23.43L189.05 23.43Q189.05 20.17 190.12 18.00Q191.19 15.82 192.95 14.74Q194.71 13.65 196.81 13.65L196.81 13.65Q198.41 13.65 199.50 14.19Q200.58 14.73 201.27 15.53Q201.95 16.34 202.29 17.12L202.29 17.12L202.50 17.12L202.50 13.89L207.71 13.89L207.71 33.21Q207.71 35.63 206.52 37.27Q205.32 38.91 203.22 39.73Q201.11 40.55 198.38 40.55ZM198.48 28.74L198.48 28.74Q200.40 28.74 201.45 27.33Q202.50 25.91 202.50 23.40L202.50 23.40Q202.50 21.72 202.03 20.48Q201.56 19.24 200.67 18.55Q199.78 17.86 198.48 17.86L198.48 17.86Q197.18 17.86 196.29 18.57Q195.39 19.28 194.93 20.52Q194.47 21.77 194.47 23.40L194.47 23.40Q194.47 25.04 194.93 26.24Q195.39 27.45 196.29 28.10Q197.18 28.74 198.48 28.74ZM219.52 33.38L219.52 33.38Q216.58 33.38 214.44 32.18Q212.31 30.98 211.17 28.77Q210.04 26.56 210.04 23.53L210.04 23.53Q210.04 20.59 211.17 18.37Q212.31 16.15 214.39 14.90Q216.46 13.65 219.26 13.65L219.26 13.65Q221.16 13.65 222.80 14.26Q224.44 14.87 225.67 16.07Q226.90 17.28 227.59 19.10Q228.27 20.92 228.27 23.36L228.27 23.36L228.27 24.80L212.14 24.80L212.14 21.53L225.71 21.53L223.25 22.39Q223.25 20.93 222.80 19.86Q222.36 18.78 221.48 18.19Q220.60 17.60 219.30 17.60L219.30 17.60Q218.00 17.60 217.10 18.20Q216.21 18.80 215.73 19.82Q215.25 20.85 215.25 22.18L215.25 22.18L215.25 24.49Q215.25 26.04 215.79 27.15Q216.34 28.25 217.32 28.84Q218.31 29.43 219.59 29.43L219.59 29.43Q220.48 29.43 221.20 29.17Q221.91 28.92 222.43 28.42Q222.96 27.92 223.21 27.22L223.21 27.22L228.10 27.55Q227.74 29.31 226.60 30.62Q225.47 31.92 223.67 32.65Q221.88 33.38 219.52 33.38ZM248.57 33L243.31 33L236.03 7.54L241.91 7.54L246.13 25.22L246.35 25.22L250.98 7.54L256.02 7.54L260.66 25.28L260.88 25.28L265.10 7.54L270.98 7.54L263.68 33L258.43 33L253.61 16.35L253.41 16.35L248.57 33ZM281.21 33.38L281.21 33.38Q278.33 33.38 276.22 32.14Q274.11 30.90 272.97 28.68Q271.83 26.47 271.83 23.53L271.83 23.53Q271.83 20.56 272.97 18.35Q274.11 16.13 276.22 14.89Q278.33 13.65 281.21 13.65L281.21 13.65Q284.12 13.65 286.23 14.89Q288.34 16.13 289.48 18.35Q290.61 20.56 290.61 23.53L290.61 23.53Q290.61 26.47 289.48 28.68Q288.34 30.90 286.23 32.14Q284.12 33.38 281.21 33.38ZM281.25 29.24L281.25 29.24Q282.56 29.24 283.45 28.50Q284.34 27.75 284.80 26.45Q285.25 25.16 285.25 23.50L285.25 23.50Q285.25 21.82 284.80 20.54Q284.34 19.26 283.45 18.52Q282.56 17.79 281.25 17.79L281.25 17.79Q279.92 17.79 279.02 18.52Q278.12 19.26 277.67 20.54Q277.22 21.82 277.22 23.50L277.22 23.50Q277.22 25.16 277.67 26.45Q278.12 27.75 279.02 28.50Q279.92 29.24 281.25 29.24ZM298.24 33L292.96 33L292.96 13.89L298.07 13.89L298.07 17.24L298.27 17.24Q298.80 15.47 300.03 14.55Q301.26 13.64 302.85 13.64L302.85 13.64Q303.26 13.64 303.71 13.68Q304.17 13.72 304.53 13.83L304.53 13.83L304.53 18.51Q304.15 18.39 303.49 18.31Q302.83 18.23 302.27 18.23L302.27 18.23Q301.12 18.23 300.20 18.74Q299.28 19.24 298.76 20.14Q298.24 21.04 298.24 22.20L298.24 22.20L298.24 33ZM314.39 23.52L310.90 27.50L310.92 21.16L311.69 21.16L317.79 13.89L323.87 13.89L315.67 23.52L314.39 23.52ZM311.40 33L306.11 33L306.11 7.54L311.40 7.54L311.40 33ZM324.23 33L318.03 33L312.42 24.69L315.94 20.93L324.23 33ZM341.18 19.35L341.18 19.35L336.35 19.64Q336.16 18.73 335.34 18.07Q334.52 17.41 333.13 17.41L333.13 17.41Q331.90 17.41 331.07 17.93Q330.25 18.44 330.25 19.29L330.25 19.29Q330.25 19.98 330.78 20.46Q331.32 20.95 332.64 21.23L332.64 21.23L336.11 21.91Q338.89 22.47 340.26 23.74Q341.63 25.00 341.63 27.07L341.63 27.07Q341.63 28.97 340.53 30.38Q339.44 31.79 337.53 32.58Q335.61 33.38 333.13 33.38L333.13 33.38Q329.34 33.38 327.09 31.79Q324.85 30.20 324.47 27.48L324.47 27.48L329.65 27.21Q329.90 28.37 330.81 28.97Q331.72 29.56 333.13 29.56L333.13 29.56Q334.52 29.56 335.38 29.02Q336.24 28.47 336.24 27.63L336.24 27.63Q336.24 26.22 333.78 25.72L333.78 25.72L330.48 25.04Q327.70 24.47 326.33 23.10Q324.96 21.74 324.96 19.60L324.96 19.60Q324.96 17.76 325.97 16.42Q326.98 15.09 328.80 14.37Q330.62 13.65 333.07 13.65L333.07 13.65Q336.69 13.65 338.76 15.18Q340.84 16.71 341.18 19.35ZM349.11 40.14L343.83 40.14L343.83 13.89L349.03 13.89L349.03 17.12L349.27 17.12Q349.63 16.34 350.29 15.53Q350.96 14.73 352.04 14.19Q353.11 13.65 354.70 13.65L354.70 13.65Q356.80 13.65 358.55 14.74Q360.31 15.82 361.37 18.01Q362.43 20.20 362.43 23.48L362.43 23.48Q362.43 26.66 361.40 28.86Q360.38 31.05 358.62 32.18Q356.87 33.31 354.68 33.31L354.68 33.31Q353.15 33.31 352.07 32.79Q350.99 32.28 350.32 31.50Q349.64 30.73 349.27 29.94L349.27 29.94L349.11 29.94L349.11 40.14ZM353.01 29.10L353.01 29.10Q354.31 29.10 355.20 28.39Q356.09 27.67 356.55 26.39Q357.01 25.12 357.01 23.46L357.01 23.46Q357.01 21.81 356.56 20.55Q356.10 19.29 355.21 18.58Q354.33 17.86 353.01 17.86L353.01 17.86Q351.73 17.86 350.83 18.55Q349.93 19.24 349.46 20.50Q348.99 21.75 348.99 23.46L348.99 23.46Q348.99 25.16 349.47 26.42Q349.95 27.69 350.85 28.39Q351.74 29.10 353.01 29.10ZM370.18 33.36L370.18 33.36Q368.37 33.36 366.93 32.72Q365.48 32.08 364.66 30.81Q363.84 29.55 363.84 27.67L363.84 27.67Q363.84 26.06 364.43 24.99Q365.01 23.93 366.01 23.26Q367.02 22.59 368.30 22.25Q369.59 21.91 371.02 21.77L371.02 21.77Q372.68 21.62 373.69 21.46Q374.70 21.31 375.17 20.99Q375.64 20.68 375.64 20.08L375.64 20.08L375.64 19.99Q375.64 18.82 374.89 18.17Q374.15 17.52 372.80 17.52L372.80 17.52Q371.38 17.52 370.53 18.14Q369.69 18.76 369.42 19.72L369.42 19.72L364.51 19.33Q364.89 17.58 365.98 16.31Q367.07 15.04 368.81 14.35Q370.54 13.65 372.83 13.65L372.83 13.65Q374.42 13.65 375.88 14.03Q377.33 14.41 378.46 15.18Q379.60 15.96 380.27 17.19Q380.93 18.42 380.93 20.11L380.93 20.11L380.93 33L375.89 33L375.89 30.33L375.76 30.33Q375.29 31.24 374.53 31.91Q373.76 32.59 372.68 32.97Q371.60 33.36 370.18 33.36ZM371.71 29.70L371.71 29.70Q372.87 29.70 373.76 29.23Q374.66 28.76 375.17 27.97Q375.67 27.17 375.67 26.18L375.67 26.18L375.67 24.15Q375.43 24.30 375.00 24.44Q374.56 24.57 374.03 24.68Q373.50 24.78 372.97 24.86Q372.44 24.93 372.01 25.00L372.01 25.00Q371.07 25.14 370.37 25.44Q369.67 25.74 369.29 26.24Q368.90 26.75 368.90 27.50L368.90 27.50Q368.90 28.57 369.69 29.14Q370.48 29.70 371.71 29.70ZM392.62 33.38L392.62 33.38Q389.70 33.38 387.60 32.12Q385.50 30.86 384.37 28.65Q383.24 26.44 383.24 23.53L383.24 23.53Q383.24 20.59 384.38 18.37Q385.51 16.15 387.62 14.90Q389.72 13.65 392.62 13.65L392.62 13.65Q395.12 13.65 396.99 14.56Q398.86 15.47 399.96 17.11Q401.05 18.75 401.15 20.97L401.15 20.97L396.16 20.97Q396.02 20.01 395.58 19.29Q395.14 18.58 394.40 18.18Q393.67 17.79 392.69 17.79L392.69 17.79Q391.46 17.79 390.55 18.45Q389.63 19.11 389.13 20.38Q388.62 21.65 388.62 23.46L388.62 23.46Q388.62 25.28 389.13 26.57Q389.63 27.87 390.55 28.56Q391.46 29.24 392.69 29.24L392.69 29.24Q394.06 29.24 395.00 28.38Q395.94 27.51 396.16 25.99L396.16 25.99L401.15 25.99Q401.03 28.18 399.97 29.85Q398.91 31.51 397.05 32.44Q395.19 33.38 392.62 33.38ZM412.14 33.38L412.14 33.38Q409.20 33.38 407.06 32.18Q404.93 30.98 403.79 28.77Q402.66 26.56 402.66 23.53L402.66 23.53Q402.66 20.59 403.79 18.37Q404.93 16.15 407.00 14.90Q409.08 13.65 411.88 13.65L411.88 13.65Q413.78 13.65 415.42 14.26Q417.06 14.87 418.29 16.07Q419.52 17.28 420.21 19.10Q420.89 20.92 420.89 23.36L420.89 23.36L420.89 24.80L404.76 24.80L404.76 21.53L418.33 21.53L415.87 22.39Q415.87 20.93 415.42 19.86Q414.98 18.78 414.10 18.19Q413.22 17.60 411.92 17.60L411.92 17.60Q410.62 17.60 409.72 18.20Q408.82 18.80 408.35 19.82Q407.87 20.85 407.87 22.18L407.87 22.18L407.87 24.49Q407.87 26.04 408.41 27.15Q408.96 28.25 409.94 28.84Q410.93 29.43 412.21 29.43L412.21 29.43Q413.10 29.43 413.81 29.17Q414.53 28.92 415.05 28.42Q415.58 27.92 415.83 27.22L415.83 27.22L420.72 27.55Q420.36 29.31 419.22 30.62Q418.09 31.92 416.29 32.65Q414.50 33.38 412.14 33.38Z"></path></g>
        
      </svg>